# File produced by Open Asset Import Library (http://www.assimp.sf.net)
# (assimp v5.3.0)

mtllib thumb1.mtl

# 315 vertex positions
v -0.00079978432 0.00183312339 0.00019999982
v -0.00151594135 0.00130457245 0.000199999762
v -0.00174138928 0.00895587076 0.000200000664
v -0.00193185115 0.000517639797 0.00019999966
v -0.00598601997 -0.00688531669 0.000199998787
v -0.00196513324 -0.000371824601 0.000199999558
v -0.00160919339 -0.0011876421 0.000199999457
v 0.00196513417 0.00037182364 0.000199999646
v 0.0059860209 0.00688531576 0.000200000417
v 0.00193185406 -0.000517637585 0.000199999544
v 0.00174138392 -0.00895586703 0.00019999854
v 0.00151594228 -0.0013045735 0.000199999442
v 0.000799785252 -0.00183312444 0.000199999384
v 0.00160919433 0.00118764117 0.000199999748
v 0.000934535463 0.00176823384 0.000199999806
v 7.47818121e-05 0.00199860241 0.000199999835
v -0.000934540818 -0.00176823081 0.000199999398
v -0.000517639739 -0.00193185231 0.000199999369
v -7.47808808e-05 -0.00199860334 0.000199999369
v -0.00598601997 -0.00688531762 0.00820000097
v -0.00598601997 -0.00688531809 0.0117000006
v -0.00520956563 -0.00398753863 0.00820000097
v -0.00520956563 -0.00398753909 0.0117000006
v -0.00251784385 0.00605809037 0.0117000025
v -0.00174138928 0.00895586982 0.0117000025
v -0.00251784385 0.00605809037 0.00820000283
v -0.00174138928 0.00895586982 0.00820000283
v -0.00831339974 0.00761100277 0.00820000283
v -0.007536944 0.0105087832 0.00820000283
v -0.0117815742 -0.00533240195 0.00820000097
v -0.0110051194 -0.00243462273 0.0082000019
v -0.0110051194 -0.00243462226 0.00369999954
v -0.0117815742 -0.00533240149 0.00369999907
v -0.0103317844 -0.00261504366 0.00387181737
v -0.0111082448 -0.00551281869 0.00387181691
v -0.00981270522 -0.0027541311 0.00434790179
v -0.01058916 -0.00565191032 0.00434790179
v -0.00956679322 -0.0028200238 0.00501919538
v -0.010343248 -0.00571780326 0.00501919538
v -0.00965038408 -0.00279762503 0.00573190674
v -0.0104268389 -0.00569540448 0.00573190674
v -0.010044327 -0.00269206613 0.00632276805
v -0.0108207818 -0.00558984512 0.00632276805
v -0.0106583787 -0.0025275324 0.0066564125
v -0.0114348335 -0.00542531163 0.0066564125
v -0.011351862 -0.00234171608 0.0066564125
v -0.0121283159 -0.00523949508 0.0066564125
v -0.0119659109 -0.00217717933 0.00632276805
v -0.0127423657 -0.00507495832 0.00632276805
v -0.0123598501 -0.00207162718 0.00573190674
v -0.0131363105 -0.00496940222 0.00573190674
v -0.012443441 -0.00204922841 0.00501919538
v -0.0132199014 -0.00494700344 0.00501919538
v -0.012197528 -0.00211512088 0.00434790179
v -0.0129739894 -0.00501289591 0.00434790179
v -0.0116784479 -0.00225420482 0.00387181737
v -0.0124549083 -0.00515198009 0.00387181691
v -0.00520956563 -0.00398753816 0.0036999993
v 0.000857165141 -0.00561311375 0.00369999907
v -0.00243036915 -0.00473222136 0.0102053173
v -0.00185964128 -0.00488515012 0.00979747623
v -0.0011712166 -0.00506961346 0.0126890643
v -0.00185964128 -0.00488515012 0.0126025258
v -0.00253981166 -0.00470289635 0.015504227
v -0.0135146696 -0.00176219235 0.00369999954
v -0.0011712166 -0.00506961299 0.00971093774
v -0.000522796996 -0.00524335494 0.00996552408
v -0.00361688994 -0.00441429438 0.0149360681
v -0.00243036915 -0.00473222136 0.0121946847
v -0.00447166199 -0.0041852612 0.0140511421
v -0.00502045825 -0.00403821049 0.0129360696
v -0.00275264587 -0.00464586867 0.0115589742
v -0.0128677739 -0.00193552778 0.00290186703
v -0.011996218 -0.00216905959 0.00238092244
v -0.0110051194 -0.00243462203 0.00219999999
v -0.00520956563 -0.00398753816 0.00219999976
v -0.00275264587 -0.00464586867 0.0108410269
v -6.29351634e-05 -0.00536657451 0.0105029158
v 0.000103027473 -0.00541104237 0.0111999996
v 0.000857165141 -0.00561311515 0.0149860671
v -0.0138588697 -0.00166996231 0.00467905449
v -0.0138588697 -0.00166996242 0.00572094368
v -0.0135146696 -0.0017621927 0.00670000259
v -0.0128677739 -0.00193552836 0.00749813486
v -0.011996218 -0.00216906029 0.00801907945
v -6.29351634e-05 -0.00536657451 0.0118970862
v -0.000522796996 -0.00524335541 0.0124344761
v -0.000151907094 -0.00534273358 0.015504227
v -0.00134586031 -0.00502281683 0.0157000013
v 0.000901337946 -0.00571232894 0.0149375638
v -0.000928369991 -0.00824051257 0.015504227
v 0.000148708248 -0.00852911454 0.0149360681
v 0.0010034868 -0.00875815097 0.0140511421
v 0.00147460774 -0.00699991081 0.0140511421
v 0.00121114019 -0.00640815869 0.0145284282
v 0.00155228307 -0.00890520122 0.0129360696
v 0.00174138392 -0.00895586889 0.0117000006
v 0.00196834374 -0.00810886454 0.0117000006
v 0.00193651591 -0.00803737342 0.0123257386
v 0.00184181193 -0.00782466773 0.0129360696
v 0.00168657047 -0.00747598708 0.0135159632
v -0.00212231488 -0.00792059582 0.0156999994
v -0.00331626623 -0.0076006758 0.015504227
v -0.00439334428 -0.00731207337 0.0149360681
v -0.00524811679 -0.0070830402 0.0140511421
v -0.00579691911 -0.00693598576 0.0129360696
v 0.0059860209 0.00688531436 0.0117000025
v 0.00575906644 0.00603830395 0.0117000025
v 0.00575906644 0.00603830488 0.00370000047
v 0.00196834374 -0.00810886361 0.00369999884
v 0.00569575792 0.00599230779 0.0123257404
v 0.00579691399 0.00693598576 0.0129360715
v 0.00550738722 0.00585545553 0.0129360715
v 0.00519860396 0.00563110551 0.0135159651
v 0.00524811773 0.00708303601 0.014051144
v 0.00477699563 0.00532479445 0.014051144
v 0.0025398063 0.00470289588 0.0155042289
v 0.00354887941 0.00443251571 0.0149860689
v 0.00363938743 0.00449827267 0.01493607
v 0.00425295997 0.00494405581 0.0145284301
v 0.00439334521 0.00731206872 0.01493607
v 0.00331626809 0.00760067254 0.0155042289
v 0.00212231581 0.00792059116 0.0157000031
v 0.00134586124 0.00502281217 0.0157000013
v 0.000928363588 0.00824050978 0.0155042289
v 0.000151909015 0.00534273079 0.0155042289
v -0.000148714607 0.00852911174 0.01493607
v -0.00092516921 0.00563133322 0.01493607
v -0.00100348587 0.00875814632 0.014051144
v -0.00177994044 0.00586036779 0.014051144
v -0.00155228213 0.00890519656 0.0129360715
v -0.00232874299 0.00600742223 0.0129360715
v -0.00251784385 0.0060580913 0.00220000092
v -0.00251784385 0.0060580913 0.00370000047
v -0.00687507167 0.00722560519 0.00501919677
v 0.00354887941 0.0044325171 0.00370000023
v -0.00695866253 0.0072480035 0.00573190814
v 0.00243037008 0.00473221811 0.0102053192
v 0.0027526468 0.00464586494 0.0108410288
v 0.0027526468 0.00464586494 0.011558976
v 0.00185964222 0.00488514686 0.00979747809
v 0.0011712166 0.00506960787 0.0097109396
v -0.00712098414 0.00729149813 0.00434790319
v -0.00764006888 0.00743058929 0.00387181854
v -0.00831339974 0.00761100324 0.00220000115
v -0.00831339974 0.00761100324 0.0037000007
v -0.00930449553 0.00787656941 0.0023809236
v -0.00898673479 0.00779142464 0.00387181854
v -0.0101760514 0.00811010133 0.0029018682
v -0.00950581301 0.00793051161 0.00434790319
v -0.0108229481 0.00828343723 0.0037000007
v -0.0111671565 0.00837566704 0.00467905542
v -0.00975172501 0.00799640454 0.00501919677
v -0.0111671565 0.00837566704 0.00572094461
v -0.00966813415 0.0079740053 0.00573190814
v -0.0108229481 0.0082834363 0.00670000352
v 0.000522797927 0.00524335168 0.00996552594
v 6.29298011e-05 0.00536657544 0.0105029177
v -0.000103031845 0.00541104469 0.0112000015
v 6.29298011e-05 0.00536657497 0.011897088
v 0.000522797927 0.00524335122 0.0124344779
v 0.0011712166 0.0050696074 0.0126890661
v 0.00185964222 0.00488514639 0.0126025276
v 0.00243037008 0.00473221764 0.0121946866
v -0.00796665717 0.00751809636 0.0066564139
v -0.00735260732 0.0073535596 0.00632276945
v -0.0101760514 0.0081101004 0.00749813579
v -0.00927418936 0.0078684492 0.00632276945
v -0.00930449553 0.00787656847 0.00801908039
v -0.00866014045 0.00770391291 0.0066564139
v -0.00831339974 0.00761100277 0.00670000352
v -0.00598601997 -0.00688531669 0.00219999929
v -0.000839389744 -0.0082643535 0.0105029158
v -0.00067342713 -0.00830882136 0.0111999996
v -0.000839389744 -0.00826435443 0.0118970862
v -0.0127726719 -0.00506683951 0.00801907852
v -0.0136442278 -0.00483330712 0.00749813439
v -0.00320682372 -0.00763000082 0.0121946847
v -0.00263610226 -0.00778292539 0.0126025258
v -0.0136442278 -0.00483330665 0.0029018668
v -0.0127726719 -0.00506683905 0.00238092197
v -0.0117815742 -0.00533240149 0.00219999952
v -0.0142911244 -0.00465997169 0.00670000212
v -0.0146353263 -0.00456774468 0.00572094321
v -0.0146353263 -0.00456774421 0.00467905402
v -0.0142911244 -0.00465997122 0.0036999993
v -0.00129925157 -0.00814113487 0.0124344761
v -0.00194767129 -0.00796739291 0.0126890643
v -0.00263610226 -0.00778292539 0.00979747623
v -0.00194767129 -0.00796739198 0.00971093774
v -0.00129925157 -0.00814113393 0.00996552408
v -0.00320682372 -0.00763000082 0.0102053173
v -0.00352910045 -0.00754364766 0.0108410269
v -0.00352910045 -0.00754364766 0.0115589742
v -0.00174138928 0.00895587076 0.00220000139
v 0.000839390676 0.0082643507 0.011897088
v 0.000673429051 0.00830882043 0.0112000015
v -0.00634452933 0.0101892771 0.00434790365
v -0.00609861687 0.0101233842 0.00501919724
v 0.00194767118 0.00796738733 0.0097109396
v 0.00263609691 0.00778292539 0.00979747809
v -0.00897526462 0.0108941803 0.00501919724
v -0.00872935262 0.0108282873 0.00434790365
v -0.0100464942 0.0111812158 0.00370000117
v -0.00939959753 0.0110078799 0.00290186866
v -0.00821027253 0.0106892018 0.00387181877
v -0.00852804165 0.0107743479 0.00238092407
v -0.007536944 0.0105087841 0.00220000139
v -0.007536944 0.0105087841 0.00370000093
v -0.00686360896 0.0103283627 0.00387181877
v 0.000839390676 0.0082643507 0.0105029177
v 0.0012992525 0.00814113114 0.00996552594
v 0.00320682558 0.00762999849 0.0102053192
v -0.00618220819 0.0101457834 0.0057319086
v -0.00657615205 0.0102513414 0.00632276991
v 0.00320682558 0.00762999849 0.0121946866
v 0.00263609691 0.00778292539 0.0126025276
v 0.0012992525 0.00814113021 0.0124344779
v 0.00194767118 0.00796738639 0.0126890661
v 0.00352910138 0.00754364394 0.0108410288
v 0.00352910138 0.00754364394 0.011558976
v -0.0103906943 0.0112734446 0.00467905588
v -0.0103906943 0.0112734446 0.00572094508
v -0.00889167376 0.010871781 0.0057319086
v -0.0100464942 0.0111812158 0.00670000399
v -0.00849773549 0.0107662277 0.00632276991
v -0.00939959753 0.0110078789 0.00749813626
v -0.00788368564 0.0106016928 0.00665641436
v -0.00852804165 0.010774347 0.00801908039
v -0.007536944 0.0105087832 0.00670000399
v -0.00719020236 0.0104158754 0.00665641436
v 0.00134194933 0.000670200214 -0.0113000022
v 0.000876780832 0.00121707167 -0.0113000022
v 0.00463106018 0.00470247865 -0.0113000013
v -0.00146334409 -0.000329572533 -0.0113000022
v -0.00348172872 0.000357171899 -0.0113000022
v -0.00144889054 0.000388229208 -0.0113000022
v -0.00320796994 0.00139962544 -0.0113000022
v -0.00110250537 0.00101709121 -0.0113000022
v -0.00263000163 0.0023093503 -0.0113000022
v -0.000503556395 0.00141295046 -0.0113000022
v -0.00180263584 0.00300008873 -0.0113000022
v 0.000210752958 0.00148512237 -0.0113000022
v 0.00209773029 0.00625775987 -0.0113000013
v 0.00345309661 0.00562460255 -0.0113000013
v -0.00114256935 -0.00097187073 -0.0113000022
v -0.00304409512 -0.0017272759 -0.0113000022
v -0.0034253234 -0.000719150354 -0.0113000022
v 0.00131387939 -0.000723689329 -0.0113000022
v 0.00461247517 -0.00472070649 -0.0113000032
v 0.000827064738 -0.00125138089 -0.0113000022
v 0.00343088433 -0.00563817471 -0.0113000032
v 0.000150782027 -0.00149240252 -0.0113000022
v 0.00207303045 -0.00626598066 -0.0113000032
v -0.000560039422 -0.00139152748 -0.0113000022
v -0.00147916412 -0.00317207817 -0.0113000022
v -0.00237420062 -0.0025716098 -0.0113000022
v 0.00557110319 0.00353876268 -0.0113000022
v 0.0062249233 0.0021932472 -0.0113000022
v 0.00149969244 -3.02042936e-05 -0.0113000022
v 0.00655893795 0.000735050242 -0.0113000022
v 0.00655598892 -0.000760911556 -0.0113000022
v 0.00144889147 -0.000388227461 -0.0113000022
v 0.00621622568 -0.00221778173 -0.0113000022
v 0.00555709889 -0.00356070977 -0.0113000022
v -0.00160919339 -0.00118764129 -0.00730000157
v -0.00196513324 -0.000371823728 -0.00730000157
v -0.0034253234 -0.000719150878 -0.00730000157
v -0.00348172872 0.000357171404 -0.00730000157
v -0.00193185115 0.00051764067 -0.00730000157
v -0.00320796994 0.00139962498 -0.00730000157
v -0.00263000163 0.00230934983 -0.0073000011
v -0.00151594135 0.00130457338 -0.00730000157
v -0.00180263584 0.00300008827 -0.0073000011
v -0.00079978432 0.0018331242 -0.00730000157
v 0.00209773029 0.00625775941 -0.00730000064
v 0.00160919433 0.0011876421 -0.00730000157
v 0.00196513417 0.000371824513 -0.00730000157
v 0.0062249233 0.00219324674 -0.0073000011
v 0.00193185406 -0.000517636712 -0.00730000157
v 0.00655598892 -0.00076091208 -0.00730000157
v 0.00655893795 0.000735049718 -0.00730000157
v 0.00151594228 -0.00130457256 -0.00730000157
v 0.00555709889 -0.00356071023 -0.00730000203
v 0.00621622568 -0.0022177822 -0.00730000203
v -0.00304409512 -0.00172727637 -0.00730000157
v -0.00237420062 -0.00257161027 -0.00730000203
v -0.000934540818 -0.00176822988 -0.00730000157
v -0.00147916412 -0.00317207864 -0.00730000203
v -7.47808808e-05 -0.00199860241 -0.00730000203
v 0.00207303045 -0.00626598112 -0.0073000025
v 0.000799785252 -0.0018331235 -0.00730000157
v 0.00343088433 -0.00563817518 -0.00730000203
v 0.00461247517 -0.00472070696 -0.00730000203
v 7.47818121e-05 0.00199860334 -0.0073000011
v 0.00051764067 0.0019318522 -0.00730000157
v 0.00345309661 0.00562460208 -0.0073000011
v 0.000934535463 0.00176823465 -0.00730000157
v 0.00463106018 0.00470247818 -0.0073000011
v 0.00557110319 0.00353876222 -0.0073000011
v 0.00144889147 -0.000388227025 -0.0150000025
v 0.00131387939 -0.000723688921 -0.0150000025
v -2.68286926e-09 3.30727845e-09 -0.0150000025
v 0.00149969244 -3.02038534e-05 -0.0150000025
v 0.000210752958 0.00148512283 -0.0150000025
v 0.000876780832 0.00121707213 -0.0150000025
v 0.00134194933 0.000670200621 -0.0150000025
v -0.00144889054 0.000388229644 -0.0150000025
v -0.00110250537 0.00101709156 -0.0150000025
v -0.000503556395 0.00141295092 -0.0150000025
v -0.000560039422 -0.00139152701 -0.0150000025
v -0.00114256935 -0.000971870264 -0.0150000025
v -0.00146334409 -0.000329572096 -0.0150000025
v 0.000827064738 -0.00125138042 -0.0150000025
v 0.000150782027 -0.00149240205 -0.0150000025

# 0 UV coordinates

# 134 vertex normals
vn 0 1.1920929e-07 -1.00000012
vn -0.965928853 0.258807749 3.08522843e-08
vn 0 -1.1920929e-07 1.00000012
vn -0.231207877 0.0619020052 0.970933199
vn -0.6405195 0.171605155 0.748522818
vn -0.903165936 0.241990864 0.35458672
vn -0.958896637 0.256899178 -0.120499566
vn -0.794910908 0.21300301 -0.568107843
vn -0.448879033 0.120294504 -0.885458767
vn 0.448879033 -0.120294295 -0.885458767
vn 0.794910908 -0.213002875 -0.568107843
vn 0.958896637 -0.256899148 -0.120499626
vn 0.903165936 -0.241990954 0.354586661
vn 0.6405195 -0.171605334 0.748522818
vn 0.231207877 -0.0619022362 0.970933199
vn 0.258807719 0.965928972 1.15147692e-07
vn 0.384494096 -0.261596113 0.88528645
vn 0.438501537 -0.117600538 0.891003251
vn 0.683010817 -0.183002993 0.70711118
vn 0.707291663 -0.22549744 0.669992149
vn 0.627163589 -0.167990357 0.760555923
vn 0.954043746 -0.255611777 0.156407148
vn 0.932202578 -0.351201028 0.0875001997
vn 0.93923521 -0.251709521 0.233408749
vn 0.86063242 -0.230608761 0.454017133
vn 0.865700245 -0.291400164 0.407000154
vn 0.823586941 -0.220696583 0.522491753
vn 0.438191384 -0.117397808 0.891182601
vn 0.151098281 -0.0404996648 0.987688899
vn -0.151098281 0.0404994301 0.987688899
vn -0.438506693 0.117501713 0.891013741
vn -0.683010817 0.18300283 0.70711118
vn -0.86063242 0.230608657 0.454017192
vn -0.954043746 0.255611718 0.156407207
vn 0.965928853 -0.258807749 -3.08522843e-08
vn 0.962946951 -0.258012593 0.0785038099
vn 0.966302276 -0.204600528 0.156200349
vn 0.939213276 -0.25170362 0.233503297
vn 0.892397463 -0.239099383 0.382698923
vn 0.869122565 -0.196905181 0.453711838
vn 0.463904768 0.0346002541 0.885209203
vn 0.734521687 -0.196805909 0.649419248
vn 0.688344479 -0.162510604 0.706945717
vn 0.627309084 -0.168102533 0.760411143
vn 0.438506693 -0.117501922 0.891013741
vn -0.258807719 -0.965928972 -1.15147692e-07
vn 0.587803006 -0.809004247 -9.64408073e-08
vn 0.587737501 -0.809051752 -9.64464704e-08
vn 0.913551569 0.406722993 4.84851519e-08
vn 0.913514376 0.406806469 4.8495103e-08
vn -0.116401426 0.0312005039 -0.992712259
vn 0.116401426 -0.0312002655 -0.992712259
vn -0.167702481 0.0449005552 0.984814703
vn -0.483002573 0.129400596 0.866004705
vn -0.739912331 0.198303252 0.642810762
vn -0.907686591 0.243196398 0.341995001
vn -0.907686591 0.243196487 -0.341994941
vn -0.739912331 0.198303416 -0.642810762
vn -0.483002573 0.129400805 -0.866004705
vn -0.167702481 0.0449007899 -0.984814703
vn 0.4196859 -0.907669604 -1.08202634e-07
vn 0.613275826 -0.789868951 -9.41597023e-08
vn 0.775434434 -0.631428123 -7.52720908e-08
vn 0.897702873 -0.440601468 -5.25237809e-08
vn 0.97387296 -0.227093726 -2.70716782e-08
vn 0.999997973 -0.00199999637 -2.38418119e-10
vn 0.974752367 0.223289117 2.66181335e-08
vn 0.899410427 0.437105119 5.21069836e-08
vn 0.777894139 0.628395379 7.49105595e-08
vn 0.616416156 0.78742075 9.38678539e-08
vn 0.423213929 0.90602994 1.08007171e-07
vn -0.640911996 0.767614484 9.15067631e-08
vn -0.844093561 0.536195934 6.39195292e-08
vn -0.967203975 0.254001081 3.02792849e-08
vn -0.998631299 -0.0523016453 -6.23484109e-09
vn -0.935364127 -0.353686452 -4.21627071e-08
vn -0.783408701 -0.621506989 -7.40893995e-08
vn -0.557121038 -0.830431461 -9.89951303e-08
vn 0.258801937 0.965907335 0.00670016557
vn 0.365296572 0.930891335 1.1097088e-07
vn 0.652280629 0.757977664 9.03579647e-08
vn 0.916565359 0.399884939 4.76699924e-08
vn 0.99930042 -0.0374000184 -4.45842918e-09
vn 0.884099066 -0.467299551 -5.57064403e-08
vn 0.593806088 -0.804608345 -9.5916775e-08
vn 0.185894281 -0.982569873 -1.17131442e-07
vn -0.149005488 -0.988836467 -1.17878479e-07
vn -0.258801937 -0.965907335 -0.00670016557
vn 0.149005488 0.988836467 1.17878479e-07
vn -0.185894281 0.982569873 1.17131442e-07
vn -0.593806088 0.804608345 9.5916775e-08
vn -0.884099066 0.467299551 5.57064403e-08
vn -0.99930042 0.0374000184 4.45842918e-09
vn -0.916565359 -0.399884939 -4.76699924e-08
vn -0.652280629 -0.757977664 -9.03579647e-08
vn -0.365296572 -0.930891335 -1.1097088e-07
vn 0.927674532 -0.373389781 -4.45115269e-08
vn 0.990081131 -0.140497327 -1.67485847e-08
vn 0.975569069 0.21969305 2.61894488e-08
vn 0.761714756 0.647912621 7.72371962e-08
vn 0.373389751 0.927674651 1.10587422e-07
vn -0.100503713 0.994936824 1.18605698e-07
vn -0.551372886 0.834259033 9.94514124e-08
vn -0.875896931 0.482498378 5.75182817e-08
vn -0.999798 0.0200999603 2.39610176e-09
vn -0.894627094 -0.446813613 -5.32643263e-08
vn -0.584497035 -0.811395943 -9.67259197e-08
vn -0.140497312 -0.990081251 -1.18026868e-07
vn 0.3356902 -0.941972554 -1.12291865e-07
vn 0.734983623 -0.67808491 -8.08340133e-08
vn -0.656782568 -0.754080176 -8.98933479e-08
vn -0.641020119 0.767524183 9.14959983e-08
vn 0.937866032 -0.251290888 -0.239291385
vn 0.723017931 -0.193704754 -0.663116574
vn 0.342507094 -0.0918018073 -0.935019493
vn -0.548697352 0.146999419 -0.822996199
vn -0.855292857 0.229198188 -0.464696169
vn -0.855292857 0.229198068 0.464696229
vn -0.548697352 0.146999225 0.822996199
vn -0.116401426 0.0312002655 0.992712259
vn 0.342507094 -0.0918020234 0.935019493
vn 0.723017931 -0.193704918 0.663116574
vn 0.937866032 -0.251290947 0.239291325
vn -0.937866032 0.251290947 -0.239291325
vn -0.723017931 0.193704918 -0.663116574
vn -0.342507094 0.0918020234 -0.935019493
vn 0.548697352 -0.146999225 -0.822996199
vn 0.855292857 -0.229198068 -0.464696229
vn 0.855292857 -0.229198188 0.464696169
vn 0.548697352 -0.146999419 0.822996199
vn 0.116401426 -0.0312005039 0.992712259
vn -0.342507094 0.0918018073 0.935019493
vn -0.723017931 0.193704754 0.663116574
vn -0.937866032 0.251290888 0.239291385

# Mesh 'right_thumb_1' with 642 faces
g right_thumb_1
usemtl white metal
f  1//1 2//1 3//1
f  3//1 2//1 4//1
f  3//1 4//1 5//1
f  5//1 4//1 6//1
f  5//1 6//1 7//1
f  8//1 9//1 10//1
f  10//1 9//1 11//1
f  10//1 11//1 12//1
f  12//1 11//1 13//1
f  8//1 14//1 9//1
f  9//1 14//1 15//1
f  9//1 15//1 3//1
f  3//1 15//1 16//1
f  3//1 16//1 1//1
f  7//1 17//1 5//1
f  5//1 17//1 18//1
f  5//1 18//1 11//1
f  11//1 18//1 19//1
f  11//1 19//1 13//1
f  20//2 21//2 22//2
f  22//2 21//2 23//2
f  24//2 25//2 26//2
f  26//2 25//2 27//2
f  28//3 26//3 29//3
f  29//3 26//3 27//3
f  30//3 20//3 31//3
f  31//3 20//3 22//3
f  32//4 33//4 34//4
f  34//4 33//4 35//4
f  34//5 35//5 36//5
f  36//5 35//5 37//5
f  36//6 37//6 38//6
f  38//6 37//6 39//6
f  38//7 39//7 40//7
f  40//7 39//7 41//7
f  40//8 41//8 42//8
f  42//8 41//8 43//8
f  42//9 43//9 44//9
f  44//9 43//9 45//9
f  44//1 45//1 46//1
f  46//1 45//1 47//1
f  46//10 47//10 48//10
f  48//10 47//10 49//10
f  48//11 49//11 50//11
f  50//11 49//11 51//11
f  50//12 51//12 52//12
f  52//12 51//12 53//12
f  52//13 53//13 54//13
f  54//13 53//13 55//13
f  54//14 55//14 56//14
f  56//14 55//14 57//14
f  56//15 57//15 32//15
f  32//15 57//15 33//15
f  58//16 31//16 59//16
f  59//16 31//16 22//16
f  60//16 61//16 22//16
f  62//16 63//16 64//16
f  52//16 54//16 65//16
f  22//16 61//16 59//16
f  59//16 61//16 66//16
f  59//16 66//16 67//16
f  64//16 63//16 68//16
f  68//16 63//16 69//16
f  68//16 69//16 70//16
f  70//16 69//16 71//16
f  71//16 69//16 72//16
f  71//16 72//16 23//16
f  65//16 54//16 73//16
f  73//16 54//16 56//16
f  73//16 56//16 74//16
f  74//16 56//16 75//16
f  75//16 56//16 32//16
f  75//16 32//16 76//16
f  38//16 58//16 36//16
f  36//16 58//16 76//16
f  36//16 76//16 34//16
f  34//16 76//16 32//16
f  23//16 72//16 22//16
f  22//16 72//16 77//16
f  22//16 77//16 60//16
f  67//16 78//16 59//16
f  59//16 78//16 79//16
f  59//16 79//16 80//16
f  65//16 81//16 52//16
f  52//16 81//16 82//16
f  52//16 82//16 50//16
f  50//16 82//16 83//16
f  50//16 83//16 48//16
f  48//16 83//16 84//16
f  48//16 84//16 46//16
f  46//16 84//16 85//16
f  46//16 85//16 44//16
f  44//16 85//16 31//16
f  44//16 31//16 42//16
f  42//16 31//16 58//16
f  42//16 58//16 40//16
f  40//16 58//16 38//16
f  79//16 86//16 80//16
f  80//16 86//16 87//16
f  80//16 87//16 88//16
f  88//16 87//16 62//16
f  88//16 62//16 89//16
f  89//16 62//16 64//16
f  90//17 80//17 88//17
f  91//18 92//18 90//18
f  93//19 94//19 92//19
f  92//20 94//20 95//20
f  92//21 95//21 90//21
f  96//22 97//22 98//22
f  98//23 99//23 96//23
f  96//24 99//24 100//24
f  96//25 100//25 93//25
f  93//26 100//26 101//26
f  93//27 101//27 94//27
f  90//28 88//28 91//28
f  91//29 88//29 89//29
f  91//29 89//29 102//29
f  102//30 89//30 64//30
f  102//30 64//30 103//30
f  103//31 64//31 68//31
f  103//31 68//31 104//31
f  104//32 68//32 70//32
f  104//32 70//32 105//32
f  105//33 70//33 71//33
f  105//33 71//33 106//33
f  106//34 71//34 23//34
f  106//34 23//34 21//34
f  107//35 108//35 109//35
f  98//35 97//35 110//35
f  110//35 97//35 11//35
f  110//35 11//35 109//35
f  109//35 11//35 9//35
f  109//35 9//35 107//35
f  108//36 107//36 111//36
f  111//37 107//37 112//37
f  111//38 112//38 113//38
f  113//39 112//39 114//39
f  114//40 112//40 115//40
f  114//27 115//27 116//27
f  117//41 118//41 119//41
f  116//42 115//42 120//42
f  120//43 115//43 121//43
f  120//44 121//44 119//44
f  119//45 121//45 122//45
f  119//45 122//45 117//45
f  117//29 122//29 123//29
f  117//29 123//29 124//29
f  124//30 123//30 125//30
f  124//30 125//30 126//30
f  126//31 125//31 127//31
f  126//31 127//31 128//31
f  128//32 127//32 129//32
f  128//32 129//32 130//32
f  130//33 129//33 131//33
f  130//33 131//33 132//33
f  132//34 131//34 25//34
f  132//34 25//34 24//34
f  133//46 134//46 135//46
f  135//46 134//46 136//46
f  135//46 136//46 137//46
f  137//46 136//46 26//46
f  138//46 136//46 139//46
f  139//46 136//46 118//46
f  139//46 118//46 140//46
f  138//46 141//46 136//46
f  136//46 141//46 142//46
f  136//46 142//46 26//46
f  135//46 143//46 133//46
f  133//46 143//46 144//46
f  133//46 144//46 145//46
f  145//46 144//46 146//46
f  145//46 146//46 147//46
f  147//46 146//46 148//46
f  147//46 148//46 149//46
f  149//46 148//46 150//46
f  149//46 150//46 151//46
f  151//46 150//46 152//46
f  152//46 150//46 153//46
f  152//46 153//46 154//46
f  154//46 153//46 155//46
f  154//46 155//46 156//46
f  142//46 157//46 26//46
f  26//46 157//46 158//46
f  26//46 158//46 24//46
f  24//46 158//46 159//46
f  24//46 159//46 132//46
f  132//46 159//46 160//46
f  132//46 160//46 130//46
f  130//46 160//46 161//46
f  130//46 161//46 128//46
f  128//46 161//46 126//46
f  126//46 161//46 162//46
f  126//46 162//46 124//46
f  124//46 162//46 117//46
f  117//46 162//46 163//46
f  117//46 163//46 118//46
f  118//46 163//46 164//46
f  118//46 164//46 140//46
f  28//46 165//46 26//46
f  26//46 165//46 166//46
f  26//46 166//46 137//46
f  156//46 155//46 167//46
f  167//46 155//46 168//46
f  167//46 168//46 169//46
f  169//46 168//46 170//46
f  169//46 170//46 28//46
f  28//46 170//46 171//46
f  28//46 171//46 165//46
f  134//3 58//3 136//3
f  136//3 58//3 59//3
f  136//3 59//3 109//3
f  109//3 59//3 110//3
f  172//46 5//46 11//46
f  173//46 11//46 174//46
f  174//46 11//46 97//46
f  174//46 97//46 175//46
f  20//46 41//46 11//46
f  11//46 41//46 39//46
f  11//46 39//46 172//46
f  47//46 45//46 20//46
f  20//46 45//46 43//46
f  20//46 43//46 41//46
f  20//46 30//46 47//46
f  47//46 30//46 176//46
f  47//46 176//46 49//46
f  49//46 176//46 177//46
f  49//46 177//46 51//46
f  178//46 179//46 104//46
f  55//46 180//46 57//46
f  57//46 180//46 181//46
f  57//46 181//46 33//46
f  33//46 181//46 182//46
f  33//46 182//46 35//46
f  35//46 182//46 172//46
f  35//46 172//46 37//46
f  37//46 172//46 39//46
f  177//46 183//46 51//46
f  51//46 183//46 184//46
f  51//46 184//46 53//46
f  53//46 184//46 185//46
f  53//46 185//46 55//46
f  55//46 185//46 186//46
f  55//46 186//46 180//46
f  187//46 91//46 188//46
f  188//46 91//46 102//46
f  188//46 102//46 179//46
f  179//46 102//46 103//46
f  179//46 103//46 104//46
f  97//46 96//46 175//46
f  175//46 96//46 93//46
f  175//46 93//46 187//46
f  187//46 93//46 92//46
f  187//46 92//46 91//46
f  189//46 20//46 190//46
f  190//46 20//46 11//46
f  190//46 11//46 191//46
f  191//46 11//46 173//46
f  189//46 192//46 20//46
f  20//46 192//46 193//46
f  20//46 193//46 21//46
f  21//46 193//46 194//46
f  21//46 194//46 106//46
f  106//46 194//46 178//46
f  106//46 178//46 105//46
f  105//46 178//46 104//46
f  3//2 5//2 76//2
f  76//2 5//2 172//2
f  195//2 3//2 133//2
f  133//2 3//2 76//2
f  133//2 76//2 134//2
f  134//2 76//2 58//2
f  196//16 197//16 25//16
f  198//16 199//16 195//16
f  195//16 199//16 27//16
f  195//16 200//16 201//16
f  202//16 203//16 204//16
f  204//16 203//16 205//16
f  205//16 203//16 206//16
f  205//16 206//16 207//16
f  207//16 206//16 208//16
f  208//16 206//16 209//16
f  208//16 209//16 195//16
f  195//16 209//16 210//16
f  195//16 210//16 198//16
f  25//16 197//16 27//16
f  27//16 197//16 211//16
f  27//16 211//16 195//16
f  195//16 211//16 212//16
f  195//16 212//16 200//16
f  9//16 3//16 107//16
f  107//16 3//16 195//16
f  107//16 195//16 213//16
f  213//16 195//16 201//16
f  199//16 214//16 27//16
f  27//16 214//16 215//16
f  27//16 215//16 29//16
f  216//16 217//16 121//16
f  218//16 125//16 219//16
f  219//16 125//16 123//16
f  219//16 123//16 217//16
f  217//16 123//16 122//16
f  217//16 122//16 121//16
f  25//16 131//16 196//16
f  196//16 131//16 129//16
f  196//16 129//16 218//16
f  218//16 129//16 127//16
f  218//16 127//16 125//16
f  213//16 220//16 107//16
f  107//16 220//16 221//16
f  107//16 221//16 112//16
f  112//16 221//16 216//16
f  112//16 216//16 115//16
f  115//16 216//16 121//16
f  204//16 222//16 202//16
f  202//16 222//16 223//16
f  202//16 223//16 224//16
f  224//16 223//16 225//16
f  224//16 225//16 226//16
f  226//16 225//16 227//16
f  226//16 227//16 228//16
f  228//16 227//16 229//16
f  228//16 229//16 230//16
f  230//16 229//16 29//16
f  230//16 29//16 231//16
f  231//16 29//16 215//16
f  119//47 118//47 136//47
f  136//47 109//47 119//47
f  119//47 109//47 108//47
f  119//47 108//47 120//47
f  120//47 108//47 116//47
f  111//48 113//48 108//48
f  108//47 113//47 114//47
f  108//47 114//47 116//47
f  98//49 110//49 59//49
f  59//49 80//49 90//49
f  59//49 90//49 98//49
f  98//49 90//49 95//49
f  98//49 95//49 94//49
f  94//49 101//49 98//49
f  98//49 101//49 100//49
f  98//50 100//50 99//50
f  209//4 146//4 210//4
f  210//4 146//4 144//4
f  210//5 144//5 198//5
f  198//5 144//5 143//5
f  198//6 143//6 199//6
f  199//6 143//6 135//6
f  199//7 135//7 214//7
f  214//7 135//7 137//7
f  214//8 137//8 215//8
f  215//8 137//8 166//8
f  215//9 166//9 231//9
f  231//9 166//9 165//9
f  231//51 165//51 230//51
f  230//51 165//51 171//51
f  230//52 171//52 228//52
f  228//52 171//52 170//52
f  228//10 170//10 226//10
f  226//10 170//10 168//10
f  226//11 168//11 224//11
f  224//11 168//11 155//11
f  224//12 155//12 202//12
f  202//12 155//12 153//12
f  202//13 153//13 203//13
f  203//13 153//13 150//13
f  203//14 150//14 206//14
f  206//14 150//14 148//14
f  206//15 148//15 209//15
f  209//15 148//15 146//15
f  30//53 31//53 85//53
f  30//53 85//53 176//53
f  176//54 85//54 84//54
f  176//54 84//54 177//54
f  177//55 84//55 83//55
f  177//55 83//55 183//55
f  183//56 83//56 82//56
f  183//56 82//56 184//56
f  184//2 82//2 81//2
f  184//2 81//2 185//2
f  185//57 81//57 65//57
f  185//57 65//57 186//57
f  186//58 65//58 73//58
f  186//58 73//58 180//58
f  180//59 73//59 74//59
f  180//59 74//59 181//59
f  181//60 74//60 75//60
f  181//60 75//60 182//60
f  28//53 29//53 229//53
f  28//53 229//53 169//53
f  169//54 229//54 227//54
f  169//54 227//54 167//54
f  167//55 227//55 225//55
f  167//55 225//55 156//55
f  156//56 225//56 223//56
f  156//56 223//56 154//56
f  154//2 223//2 222//2
f  154//2 222//2 152//2
f  152//57 222//57 204//57
f  152//57 204//57 151//57
f  151//58 204//58 205//58
f  151//58 205//58 149//58
f  149//59 205//59 207//59
f  149//59 207//59 147//59
f  147//60 207//60 208//60
f  147//60 208//60 145//60
f  232//1 233//1 234//1
f  235//1 236//1 237//1
f  237//1 236//1 238//1
f  237//1 238//1 239//1
f  239//1 238//1 240//1
f  239//1 240//1 241//1
f  241//1 240//1 242//1
f  241//1 242//1 243//1
f  243//1 242//1 244//1
f  243//1 244//1 233//1
f  233//1 244//1 245//1
f  233//1 245//1 234//1
f  246//1 247//1 235//1
f  235//1 247//1 248//1
f  235//1 248//1 236//1
f  249//1 250//1 251//1
f  251//1 250//1 252//1
f  251//1 252//1 253//1
f  253//1 252//1 254//1
f  253//1 254//1 255//1
f  255//1 254//1 256//1
f  255//1 256//1 246//1
f  246//1 256//1 257//1
f  246//1 257//1 247//1
f  234//1 258//1 232//1
f  232//1 258//1 259//1
f  232//1 259//1 260//1
f  259//1 261//1 260//1
f  260//1 261//1 262//1
f  260//1 262//1 263//1
f  263//1 262//1 264//1
f  263//1 264//1 249//1
f  249//1 264//1 265//1
f  249//1 265//1 250//1
f  266//3 267//3 268//3
f  268//3 267//3 269//3
f  269//3 267//3 270//3
f  269//3 270//3 271//3
f  271//3 270//3 272//3
f  272//3 270//3 273//3
f  272//3 273//3 274//3
f  274//3 273//3 275//3
f  274//3 275//3 276//3
f  277//3 278//3 279//3
f  280//3 281//3 278//3
f  278//3 281//3 282//3
f  278//3 282//3 279//3
f  283//3 284//3 280//3
f  280//3 284//3 285//3
f  280//3 285//3 281//3
f  268//3 286//3 266//3
f  266//3 286//3 287//3
f  266//3 287//3 288//3
f  288//3 287//3 289//3
f  288//3 289//3 290//3
f  290//3 289//3 291//3
f  290//3 291//3 292//3
f  292//3 291//3 293//3
f  292//3 293//3 283//3
f  283//3 293//3 294//3
f  283//3 294//3 284//3
f  275//3 295//3 276//3
f  276//3 295//3 296//3
f  276//3 296//3 297//3
f  297//3 296//3 298//3
f  297//3 298//3 299//3
f  299//3 298//3 277//3
f  299//3 277//3 300//3
f  300//3 277//3 279//3
f  291//61 254//61 252//61
f  291//61 252//61 293//61
f  293//62 252//62 250//62
f  293//62 250//62 294//62
f  294//63 250//63 265//63
f  294//63 265//63 284//63
f  284//64 265//64 264//64
f  284//64 264//64 285//64
f  285//65 264//65 262//65
f  285//65 262//65 281//65
f  281//66 262//66 261//66
f  281//66 261//66 282//66
f  282//67 261//67 259//67
f  282//67 259//67 279//67
f  279//68 259//68 258//68
f  279//68 258//68 300//68
f  300//69 258//69 234//69
f  300//69 234//69 299//69
f  299//70 234//70 245//70
f  299//70 245//70 297//70
f  297//71 245//71 244//71
f  297//71 244//71 276//71
f  274//72 242//72 240//72
f  274//72 240//72 272//72
f  272//73 240//73 238//73
f  272//73 238//73 271//73
f  271//74 238//74 236//74
f  271//74 236//74 269//74
f  269//75 236//75 248//75
f  269//75 248//75 268//75
f  268//76 248//76 247//76
f  268//76 247//76 286//76
f  286//77 247//77 257//77
f  286//77 257//77 287//77
f  287//78 257//78 256//78
f  287//78 256//78 289//78
f  296//79 16//79 15//79
f  296//80 15//80 298//80
f  298//81 15//81 14//81
f  298//81 14//81 277//81
f  277//82 14//82 8//82
f  277//82 8//82 278//82
f  278//83 8//83 10//83
f  278//83 10//83 280//83
f  280//84 10//84 12//84
f  280//84 12//84 283//84
f  283//85 12//85 13//85
f  283//85 13//85 292//85
f  292//86 13//86 19//86
f  292//86 19//86 290//86
f  290//87 19//87 18//87
f  290//88 18//88 288//88
f  296//89 295//89 16//89
f  16//90 295//90 275//90
f  16//90 275//90 1//90
f  1//91 275//91 273//91
f  1//91 273//91 2//91
f  2//92 273//92 270//92
f  2//92 270//92 4//92
f  4//93 270//93 267//93
f  4//93 267//93 6//93
f  6//94 267//94 266//94
f  6//94 266//94 7//94
f  7//95 266//95 288//95
f  7//95 288//95 17//95
f  17//96 288//96 18//96
f  301//1 302//1 303//1
f  301//1 303//1 304//1
f  305//1 306//1 303//1
f  303//1 306//1 307//1
f  303//1 307//1 304//1
f  308//1 309//1 303//1
f  303//1 309//1 310//1
f  303//1 310//1 305//1
f  311//1 312//1 303//1
f  303//1 312//1 313//1
f  303//1 313//1 308//1
f  302//1 314//1 303//1
f  303//1 314//1 315//1
f  303//1 315//1 311//1
f  302//97 301//97 263//97
f  263//98 301//98 260//98
f  301//98 304//98 260//98
f  260//99 304//99 307//99
f  260//99 307//99 232//99
f  232//100 307//100 306//100
f  232//100 306//100 233//100
f  233//101 306//101 305//101
f  233//101 305//101 243//101
f  243//102 305//102 310//102
f  243//102 310//102 241//102
f  241//103 310//103 309//103
f  241//103 309//103 239//103
f  239//104 309//104 308//104
f  239//104 308//104 237//104
f  237//105 308//105 313//105
f  237//105 313//105 235//105
f  235//106 313//106 312//106
f  235//106 312//106 246//106
f  246//107 312//107 311//107
f  246//107 311//107 255//107
f  255//108 311//108 315//108
f  255//108 315//108 253//108
f  253//109 315//109 314//109
f  253//109 314//109 251//109
f  251//110 314//110 302//110
f  251//110 302//110 249//110
f  249//97 302//97 263//97
f  289//111 256//111 291//111
f  291//111 256//111 254//111
f  276//112 244//112 274//112
f  274//112 244//112 242//112
f  159//113 197//113 160//113
f  160//113 197//113 196//113
f  160//114 196//114 161//114
f  161//114 196//114 218//114
f  161//115 218//115 162//115
f  162//115 218//115 219//115
f  162//51 219//51 163//51
f  163//51 219//51 217//51
f  163//116 217//116 164//116
f  164//116 217//116 216//116
f  164//117 216//117 140//117
f  140//117 216//117 221//117
f  140//2 221//2 139//2
f  139//2 221//2 220//2
f  139//118 220//118 138//118
f  138//118 220//118 213//118
f  138//119 213//119 141//119
f  141//119 213//119 201//119
f  141//120 201//120 142//120
f  142//120 201//120 200//120
f  142//121 200//121 157//121
f  157//121 200//121 212//121
f  157//122 212//122 158//122
f  158//122 212//122 211//122
f  158//123 211//123 159//123
f  159//123 211//123 197//123
f  79//124 174//124 86//124
f  86//124 174//124 175//124
f  86//125 175//125 87//125
f  87//125 175//125 187//125
f  87//126 187//126 62//126
f  62//126 187//126 188//126
f  62//52 188//52 63//52
f  63//52 188//52 179//52
f  63//127 179//127 69//127
f  69//127 179//127 178//127
f  69//128 178//128 72//128
f  72//128 178//128 194//128
f  72//35 194//35 77//35
f  77//35 194//35 193//35
f  77//129 193//129 60//129
f  60//129 193//129 192//129
f  60//130 192//130 61//130
f  61//130 192//130 189//130
f  61//131 189//131 66//131
f  66//131 189//131 190//131
f  66//132 190//132 67//132
f  67//132 190//132 191//132
f  67//133 191//133 78//133
f  78//133 191//133 173//133
f  78//134 173//134 79//134
f  79//134 173//134 174//134
f  195//1 133//1 208//1
f  208//1 133//1 145//1
f  75//1 76//1 182//1
f  182//1 76//1 172//1

